<svg xmlns="http://www.w3.org/2000/svg" id="svg22" version="1.1" viewBox="0 0 21.72 32">
    <!-- Origin: https://commons.wikimedia.org/wiki/File:Trino-logo-w-bk.svg -->
  <defs id="defs1">
    <style id="style1">
      .cls-2{fill:#fff}.cls-3{fill:#dd00a1}.cls-4{fill:#f9d8d2}.cls-5{fill:#10110e}.cls-6{fill:#e5e5e5}.cls-8{fill:#515151}
    </style>
  </defs>
  <g id="Layer_2" data-name="Layer 2" transform="translate(0 .002)">
    <g id="Layer_3" data-name="Layer 3">
      <path id="path1" fill="#cdcccc" stroke-width=".506" d="M19.773 15.513a1.518 1.518 0 0 0-3.035 0 1.4 1.4 0 0 0 .966 1.29v2.312a7.72 7.72 0 0 0-3.495-3.971c.233-.506.47-.94.698-1.34a33 33 0 0 1 2.868-3.663c.572-.678 1.113-1.315 1.553-1.871 1.234-1.548 2.59-3.835 2.337-5.19a1.3 1.3 0 0 0-.632-.916c-1.715-1.011-4.047 2.276-6.338 5.448-1.518 2.094-2.302 5.058-2.661 6.723a10 10 0 0 0-2.14-.233 9.4 9.4 0 0 0-3.075.506 43 43 0 0 1 .167-5.564c.505-4.81.283-7.633-.653-8.6A1.23 1.23 0 0 0 5.342 0C2.58.136 2.893 8.386 2.939 9.327c.111 2.256 1.012 4.998 1.558 6.515a7.8 7.8 0 0 0-2.656 3.95h-.197A1.573 1.573 0 0 0 0 21.31v2.615a1.58 1.58 0 0 0 1.644 1.518h.334a6.75 6.75 0 0 0 1.664 2.342l-.506.445a.59.59 0 0 0-.066.83c1.518 1.846 4.002 2.903 6.789 2.903s5.28-1.057 6.788-2.903a.59.59 0 0 0-.066-.83l-.505-.445a6.9 6.9 0 0 0 1.664-2.383h.38a1.58 1.58 0 0 0 1.643-1.517V21.29a1.49 1.49 0 0 0-.966-1.356v-3.13a1.39 1.39 0 0 0 .976-1.29"/>
      <path id="path2" stroke-width=".506" d="M7.395 28.195c.466-.309-.758-.193-.86-.4a8.3 8.3 0 0 1-1.446-.258c-.86-.228-2.924-1.614-3.147-2.944s0-3.854.931-5.372a8.7 8.7 0 0 1 2.216-2.377S3.283 12.549 3.13 9.307 3.232.293 5.347.19c2.114-.1 1.806 5.302 1.446 8.817a46 46 0 0 0-.1 7.021 10 10 0 0 1 2.781-.465 10.7 10.7 0 0 1 2.479.233s.673-4.978 2.888-8.094c2.216-3.116 4.553-6.298 6.07-5.392s-.414 4.138-1.755 5.822-3.662 4.214-4.436 5.564a24 24 0 0 0-1.34 2.787 7.55 7.55 0 0 1 3.232 3.197c1.092 2.18 1.173 4.861.586 6a4.09 4.09 0 0 1-2.837 2.023c-.673.03-3.5.733-3.5.733z" class="cls-2"/>
      <path id="path3" stroke-width=".506" d="M12.347 15.842s1.69-4.406 3.202-6.88c1.513-2.473 3.541-4.344 4.179-3.965.637.38-1.3 2.691-3 4.962a57 57 0 0 0-3.758 6.262z" class="cls-3"/>
      <path id="path4" stroke-width=".506" d="m5.564 16.596.506-.375s-.07-4.405 0-7.081.207-6.02-.688-5.99-1.517 2.616-1.168 6.263a44 44 0 0 0 1.35 7.183" class="cls-3"/>
      <circle id="circle4" cx="4.057" cy="25.058" r=".981" stroke-width=".506" class="cls-4"/>
      <circle id="circle5" cx="15.656" cy="25.058" r=".981" stroke-width=".506" class="cls-4"/>
      <path id="path5" stroke-width=".506" d="M11.483 24.977a.09.09 0 0 0-.127.036s-.293.506-.718.536a1.06 1.06 0 0 1-.759-.354v-.749c.273-.151.713-.607.713-.763a.71.71 0 0 0-.753-.552c-.506 0-.86.329-.86.602s.556.627.713.729v.738a.92.92 0 0 1-.663.35c-.4 0-.703-.547-.708-.552a.096.096 0 0 0-.126-.04.1.1 0 0 0-.04.13s.358.653.874.653a1.07 1.07 0 0 0 .764-.369 1.2 1.2 0 0 0 .8.37h.06a1.26 1.26 0 0 0 .865-.638.09.09 0 0 0-.035-.127" class="cls-5"/>
      <path id="path6" stroke-width=".506" d="M5.089 16.854s-1.401-3.541-1.67-5.392-.505-4.943-.151-7.001a25 25 0 0 1 .617-2.813s-.653 4.8-.41 6.9 1.614 8.306 1.614 8.306" class="cls-6"/>
      <path id="path7" stroke-width=".506" d="M11.953 15.797s1.012-5.357 2.484-7.462 3.298-4.658 4.223-5.3l.926-.648s-3.713 3.895-5.15 7.082a76 76 0 0 0-2.483 6.328" class="cls-6"/>
      <path id="path8" stroke-width=".506" d="M6.07 21.867a.769.769 0 1 0 .764.768.77.77 0 0 0-.764-.768m.218.713a.207.207 0 0 1-.208-.208.207.207 0 0 1 .415 0 .207.207 0 0 1-.218.208z" class="cls-5"/>
      <path id="path9" stroke-width=".506" d="M13.617 21.867a.769.769 0 1 0 .769.768.77.77 0 0 0-.769-.768m.218.713a.21.21 0 0 1-.208-.208.212.212 0 0 1 .42 0 .21.21 0 0 1-.212.208" class="cls-5"/>
      <ellipse id="ellipse9" cx="9.98" cy="22.924" fill="#8accce" stroke-width=".506" opacity=".2" rx="7.132" ry="5.139"/>
      <path id="path10" stroke-width=".506" d="M18.615 20.066v-3.374a1.24 1.24 0 0 0 .971-1.153 1.34 1.34 0 0 0-2.666 0 1.234 1.234 0 0 0 .966 1.153v3.288h-.096c-1.011-3.51-4-5.69-7.9-5.69s-6.91 2.16-7.907 5.69h-.339a1.39 1.39 0 0 0-1.457 1.31v2.615a1.39 1.39 0 0 0 1.457 1.305h.46a6.6 6.6 0 0 0 1.821 2.575l-.657.587a.4.4 0 0 0-.046.566c1.477 1.786 3.9 2.833 6.642 2.833 2.741 0 5.164-1.012 6.641-2.833a.4.4 0 0 0-.045-.566l-.658-.587a6.75 6.75 0 0 0 1.821-2.575h.506a1.39 1.39 0 0 0 1.457-1.305V21.29a1.325 1.325 0 0 0-.971-1.224m-8.726-2.049c3.612 0 6.546 2.378 6.546 5.296 0 3.162-3.298 4.553-6.546 4.553-3.247 0-6.545-1.417-6.545-4.553 0-2.918 2.933-5.296 6.545-5.296" class="cls-2"/>
      <path id="path11" stroke-width=".506" d="M18.858 23.03h-.972v-.475a10 10 0 0 0-.192-1.923h.41a.683.683 0 0 1 .728.658z" class="cls-8"/>
      <path id="path12" stroke-width=".506" d="M18.13 24.558h-.507a8 8 0 0 0 .218-1.088h1.012v.435a.68.68 0 0 1-.724.653" class="cls-8"/>
      <path id="path13" stroke-width=".506" d="M9.89 31.098c-2.429 0-4.584-.875-5.944-2.423l.682-.607a9.03 9.03 0 0 0 5.261 1.518 9.05 9.05 0 0 0 5.26-1.518l.679.607c-1.356 1.548-3.516 2.423-5.939 2.423" class="cls-8"/>
      <path id="path14" stroke-width=".506" d="M1.644 20.632h.435a10 10 0 0 0-.192 1.923 3 3 0 0 0 0 .475H.94v-1.74a.647.647 0 0 1 .703-.658" class="cls-8"/>
      <path id="path15" stroke-width=".506" d="M9.89 17.582a8.8 8.8 0 0 0-2.429.35v-2.636a8.7 8.7 0 0 1 2.428-.329 8.7 8.7 0 0 1 2.423.329v2.655a8.1 8.1 0 0 0-2.423-.369"/>
      <path id="path16" stroke-width=".506" d="M6.98 15.448v2.66c-2.427.89-4.122 2.899-4.122 5.205 0 2.99 2.838 5.013 7.031 5.013 4.194 0 7.031-2.023 7.031-5.013 0-2.306-1.7-4.315-4.122-5.205v-2.66c2.837 1.011 4.608 3.636 4.608 7.127 0 3.925-3.01 6.576-7.517 6.576s-7.517-2.636-7.517-6.576c0-3.49 1.77-6.106 4.609-7.127" class="cls-8"/>
      <path id="path17" stroke-width=".506" d="M.916 23.47h1.011a8 8 0 0 0 .218 1.088h-.506a.683.683 0 0 1-.728-.653Z" class="cls-8"/>
      <ellipse id="ellipse17" cx="18.251" cy="15.513" stroke-width=".506" class="cls-8" rx=".607" ry=".546"/>
    </g>
  </g>
</svg>
